<?xml version="1.0" encoding="UTF-8" standalone="no"?>
<!-- Created with Inkscape (http://www.inkscape.org/) -->

<svg
   version="1.1"
   id="svg2"
   xml:space="preserve"
   width="1122.6667"
   height="793.33331"
   viewBox="0 0 1122.6667 793.33331"
   sodipodi:docname="decoding_time_per_syndrome.eps"
   xmlns:inkscape="http://www.inkscape.org/namespaces/inkscape"
   xmlns:sodipodi="http://sodipodi.sourceforge.net/DTD/sodipodi-0.dtd"
   xmlns="http://www.w3.org/2000/svg"
   xmlns:svg="http://www.w3.org/2000/svg"><defs
     id="defs6" /><sodipodi:namedview
     id="namedview4"
     pagecolor="#ffffff"
     bordercolor="#666666"
     borderopacity="1.0"
     inkscape:pageshadow="2"
     inkscape:pageopacity="0.0"
     inkscape:pagecheckerboard="0" /><g
     id="g8"
     inkscape:groupmode="layer"
     inkscape:label="ink_ext_XXXXXX"
     transform="matrix(0,1.3333333,1.3333333,0,0,0)"><g
       id="g10"
       transform="scale(0.1)"><path
         d="M 4180,1244 V 7267"
         style="fill:none;stroke:#000000;stroke-width:1.25;stroke-linecap:butt;stroke-linejoin:miter;stroke-miterlimit:3.8;stroke-dasharray:10, 20;stroke-dashoffset:0;stroke-opacity:1"
         id="path12" /><path
         d="m 4180,1244 v 63 m 0,5960 v -63"
         style="fill:none;stroke:#000000;stroke-width:5;stroke-linecap:butt;stroke-linejoin:miter;stroke-miterlimit:3.8;stroke-dasharray:none;stroke-opacity:1"
         id="path14" /><g
         id="g16"
         transform="scale(10)"><text
           transform="matrix(0,1,1,0,426,96.6523)"
           style="font-variant:normal;font-weight:normal;font-size:24px;font-family:Arial;-inkscape-font-specification:Arial;writing-mode:lr-tb;fill:#000000;fill-opacity:1;fill-rule:nonzero;stroke:none"
           id="text20"><tspan
             x="0"
             y="0"
             id="tspan18">3</tspan></text></g><path
         d="M 2996,1244 V 7267"
         style="fill:none;stroke:#000000;stroke-width:1.25;stroke-linecap:butt;stroke-linejoin:miter;stroke-miterlimit:3.8;stroke-dasharray:10, 20;stroke-dashoffset:0;stroke-opacity:1"
         id="path22" /><path
         d="m 2996,1244 v 63 m 0,5960 v -63"
         style="fill:none;stroke:#000000;stroke-width:5;stroke-linecap:butt;stroke-linejoin:miter;stroke-miterlimit:3.8;stroke-dasharray:none;stroke-opacity:1"
         id="path24" /><g
         id="g26"
         transform="scale(10)"><text
           transform="matrix(0,1,1,0,307.6,96.6523)"
           style="font-variant:normal;font-weight:normal;font-size:24px;font-family:Arial;-inkscape-font-specification:Arial;writing-mode:lr-tb;fill:#000000;fill-opacity:1;fill-rule:nonzero;stroke:none"
           id="text30"><tspan
             x="0"
             y="0"
             id="tspan28">4</tspan></text></g><path
         d="M 1813,1244 V 7267"
         style="fill:none;stroke:#000000;stroke-width:1.25;stroke-linecap:butt;stroke-linejoin:miter;stroke-miterlimit:3.8;stroke-dasharray:10, 20;stroke-dashoffset:0;stroke-opacity:1"
         id="path32" /><path
         d="m 1813,1244 v 63 m 0,5960 v -63"
         style="fill:none;stroke:#000000;stroke-width:5;stroke-linecap:butt;stroke-linejoin:miter;stroke-miterlimit:3.8;stroke-dasharray:none;stroke-opacity:1"
         id="path34" /><g
         id="g36"
         transform="scale(10)"><text
           transform="matrix(0,1,1,0,189.3,96.6523)"
           style="font-variant:normal;font-weight:normal;font-size:24px;font-family:Arial;-inkscape-font-specification:Arial;writing-mode:lr-tb;fill:#000000;fill-opacity:1;fill-rule:nonzero;stroke:none"
           id="text40"><tspan
             x="0"
             y="0"
             id="tspan38">5</tspan></text></g><path
         d="m 4772,1244 h -63 m -3488,0 h 63"
         style="fill:none;stroke:#000000;stroke-width:5;stroke-linecap:butt;stroke-linejoin:miter;stroke-miterlimit:3.8;stroke-dasharray:none;stroke-opacity:1"
         id="path42" /><g
         id="g44"
         transform="scale(10)"><text
           transform="matrix(0,1,1,0,509.2,117.726)"
           style="font-variant:normal;font-weight:normal;font-size:24px;font-family:Arial;-inkscape-font-specification:Arial;writing-mode:lr-tb;fill:#000000;fill-opacity:1;fill-rule:nonzero;stroke:none"
           id="text48"><tspan
             x="0"
             y="0"
             id="tspan46">1</tspan></text></g><path
         d="m 4772,1986 h -63 m -3488,0 h 63"
         style="fill:none;stroke:#000000;stroke-width:5;stroke-linecap:butt;stroke-linejoin:miter;stroke-miterlimit:3.8;stroke-dasharray:none;stroke-opacity:1"
         id="path50" /><g
         id="g52"
         transform="scale(10)"><text
           transform="matrix(0,1,1,0,509.2,191.926)"
           style="font-variant:normal;font-weight:normal;font-size:24px;font-family:Arial;-inkscape-font-specification:Arial;writing-mode:lr-tb;fill:#000000;fill-opacity:1;fill-rule:nonzero;stroke:none"
           id="text56"><tspan
             x="0"
             y="0"
             id="tspan54">3</tspan></text></g><path
         d="m 4772,2798 h -63 m -3488,0 h 63"
         style="fill:none;stroke:#000000;stroke-width:5;stroke-linecap:butt;stroke-linejoin:miter;stroke-miterlimit:3.8;stroke-dasharray:none;stroke-opacity:1"
         id="path58" /><g
         id="g60"
         transform="scale(10)"><text
           transform="matrix(0,1,1,0,509.2,266.452)"
           style="font-variant:normal;font-weight:normal;font-size:24px;font-family:Arial;-inkscape-font-specification:Arial;writing-mode:lr-tb;fill:#000000;fill-opacity:1;fill-rule:nonzero;stroke:none"
           id="text64"><tspan
             x="0 13.344"
             y="0"
             sodipodi:role="line"
             id="tspan62">10</tspan></text></g><path
         d="m 4772,3540 h -63 m -3488,0 h 63"
         style="fill:none;stroke:#000000;stroke-width:5;stroke-linecap:butt;stroke-linejoin:miter;stroke-miterlimit:3.8;stroke-dasharray:none;stroke-opacity:1"
         id="path66" /><g
         id="g68"
         transform="scale(10)"><text
           transform="matrix(0,1,1,0,509.2,340.652)"
           style="font-variant:normal;font-weight:normal;font-size:24px;font-family:Arial;-inkscape-font-specification:Arial;writing-mode:lr-tb;fill:#000000;fill-opacity:1;fill-rule:nonzero;stroke:none"
           id="text72"><tspan
             x="0 13.344"
             y="0"
             sodipodi:role="line"
             id="tspan70">30</tspan></text></g><path
         d="m 4772,4353 h -63 m -3488,0 h 63"
         style="fill:none;stroke:#000000;stroke-width:5;stroke-linecap:butt;stroke-linejoin:miter;stroke-miterlimit:3.8;stroke-dasharray:none;stroke-opacity:1"
         id="path74" /><g
         id="g76"
         transform="scale(10)"><text
           transform="matrix(0,1,1,0,509.2,415.279)"
           style="font-variant:normal;font-weight:normal;font-size:24px;font-family:Arial;-inkscape-font-specification:Arial;writing-mode:lr-tb;fill:#000000;fill-opacity:1;fill-rule:nonzero;stroke:none"
           id="text80"><tspan
             x="0 13.344 26.688"
             y="0"
             sodipodi:role="line"
             id="tspan78">100</tspan></text></g><path
         d="m 4772,5094 h -63 m -3488,0 h 63"
         style="fill:none;stroke:#000000;stroke-width:5;stroke-linecap:butt;stroke-linejoin:miter;stroke-miterlimit:3.8;stroke-dasharray:none;stroke-opacity:1"
         id="path82" /><g
         id="g84"
         transform="scale(10)"><text
           transform="matrix(0,1,1,0,509.2,489.379)"
           style="font-variant:normal;font-weight:normal;font-size:24px;font-family:Arial;-inkscape-font-specification:Arial;writing-mode:lr-tb;fill:#000000;fill-opacity:1;fill-rule:nonzero;stroke:none"
           id="text88"><tspan
             x="0 13.344 26.688"
             y="0"
             sodipodi:role="line"
             id="tspan86">300</tspan></text></g><path
         d="m 4772,5907 h -63 m -3488,0 h 63"
         style="fill:none;stroke:#000000;stroke-width:5;stroke-linecap:butt;stroke-linejoin:miter;stroke-miterlimit:3.8;stroke-dasharray:none;stroke-opacity:1"
         id="path90" /><g
         id="g92"
         transform="scale(10)"><text
           transform="matrix(0,1,1,0,509.2,564.005)"
           style="font-variant:normal;font-weight:normal;font-size:24px;font-family:Arial;-inkscape-font-specification:Arial;writing-mode:lr-tb;fill:#000000;fill-opacity:1;fill-rule:nonzero;stroke:none"
           id="text96"><tspan
             x="0 13.344 26.688 40.032001"
             y="0"
             sodipodi:role="line"
             id="tspan94">1000</tspan></text></g><path
         d="m 4772,6648 h -63 m -3488,0 h 63"
         style="fill:none;stroke:#000000;stroke-width:5;stroke-linecap:butt;stroke-linejoin:miter;stroke-miterlimit:3.8;stroke-dasharray:none;stroke-opacity:1"
         id="path98" /><g
         id="g100"
         transform="scale(10)"><text
           transform="matrix(0,1,1,0,509.2,638.105)"
           style="font-variant:normal;font-weight:normal;font-size:24px;font-family:Arial;-inkscape-font-specification:Arial;writing-mode:lr-tb;fill:#000000;fill-opacity:1;fill-rule:nonzero;stroke:none"
           id="text104"><tspan
             x="0 13.344 26.688 40.032001"
             y="0"
             sodipodi:role="line"
             id="tspan102">3000</tspan></text></g><path
         d="m 1221,1244 h 63"
         style="fill:none;stroke:#000000;stroke-width:5;stroke-linecap:butt;stroke-linejoin:miter;stroke-miterlimit:3.8;stroke-dasharray:none;stroke-opacity:1"
         id="path106" /><g
         id="g108"
         transform="scale(10)"><text
           transform="matrix(0,1,1,0,106.1,104.379)"
           style="font-variant:normal;font-weight:normal;font-size:24px;font-family:Arial;-inkscape-font-specification:Arial;writing-mode:lr-tb;fill:#000000;fill-opacity:1;fill-rule:nonzero;stroke:none"
           id="text112"><tspan
             x="0 13.344 26.688"
             y="0"
             sodipodi:role="line"
             id="tspan110">1e5</tspan></text></g><path
         d="m 1221,1986 h 63"
         style="fill:none;stroke:#000000;stroke-width:5;stroke-linecap:butt;stroke-linejoin:miter;stroke-miterlimit:3.8;stroke-dasharray:none;stroke-opacity:1"
         id="path114" /><g
         id="g116"
         transform="scale(10)"><text
           transform="matrix(0,1,1,0,106.1,168.571)"
           style="font-variant:normal;font-weight:normal;font-size:24px;font-family:Arial;-inkscape-font-specification:Arial;writing-mode:lr-tb;fill:#000000;fill-opacity:1;fill-rule:nonzero;stroke:none"
           id="text120"><tspan
             x="0 13.344 20.016001 33.360001 46.703999"
             y="0"
             sodipodi:role="line"
             id="tspan118">3.3e4</tspan></text></g><path
         d="m 1221,2798 h 63"
         style="fill:none;stroke:#000000;stroke-width:5;stroke-linecap:butt;stroke-linejoin:miter;stroke-miterlimit:3.8;stroke-dasharray:none;stroke-opacity:1"
         id="path122" /><g
         id="g124"
         transform="scale(10)"><text
           transform="matrix(0,1,1,0,106.1,259.779)"
           style="font-variant:normal;font-weight:normal;font-size:24px;font-family:Arial;-inkscape-font-specification:Arial;writing-mode:lr-tb;fill:#000000;fill-opacity:1;fill-rule:nonzero;stroke:none"
           id="text128"><tspan
             x="0 13.344 26.688"
             y="0"
             sodipodi:role="line"
             id="tspan126">1e4</tspan></text></g><path
         d="m 1221,3540 h 63"
         style="fill:none;stroke:#000000;stroke-width:5;stroke-linecap:butt;stroke-linejoin:miter;stroke-miterlimit:3.8;stroke-dasharray:none;stroke-opacity:1"
         id="path130" /><g
         id="g132"
         transform="scale(10)"><text
           transform="matrix(0,1,1,0,106.1,323.971)"
           style="font-variant:normal;font-weight:normal;font-size:24px;font-family:Arial;-inkscape-font-specification:Arial;writing-mode:lr-tb;fill:#000000;fill-opacity:1;fill-rule:nonzero;stroke:none"
           id="text136"><tspan
             x="0 13.344 20.016001 33.360001 46.703999"
             y="0"
             sodipodi:role="line"
             id="tspan134">3.3e3</tspan></text></g><path
         d="m 1221,4353 h 63"
         style="fill:none;stroke:#000000;stroke-width:5;stroke-linecap:butt;stroke-linejoin:miter;stroke-miterlimit:3.8;stroke-dasharray:none;stroke-opacity:1"
         id="path138" /><g
         id="g140"
         transform="scale(10)"><text
           transform="matrix(0,1,1,0,106.1,415.279)"
           style="font-variant:normal;font-weight:normal;font-size:24px;font-family:Arial;-inkscape-font-specification:Arial;writing-mode:lr-tb;fill:#000000;fill-opacity:1;fill-rule:nonzero;stroke:none"
           id="text144"><tspan
             x="0 13.344 26.688"
             y="0"
             sodipodi:role="line"
             id="tspan142">1e3</tspan></text></g><path
         d="m 1221,5094 h 63"
         style="fill:none;stroke:#000000;stroke-width:5;stroke-linecap:butt;stroke-linejoin:miter;stroke-miterlimit:3.8;stroke-dasharray:none;stroke-opacity:1"
         id="path146" /><g
         id="g148"
         transform="scale(10)"><text
           transform="matrix(0,1,1,0,106.1,479.371)"
           style="font-variant:normal;font-weight:normal;font-size:24px;font-family:Arial;-inkscape-font-specification:Arial;writing-mode:lr-tb;fill:#000000;fill-opacity:1;fill-rule:nonzero;stroke:none"
           id="text152"><tspan
             x="0 13.344 20.016001 33.360001 46.703999"
             y="0"
             sodipodi:role="line"
             id="tspan150">3.3e2</tspan></text></g><path
         d="m 1221,5907 h 63"
         style="fill:none;stroke:#000000;stroke-width:5;stroke-linecap:butt;stroke-linejoin:miter;stroke-miterlimit:3.8;stroke-dasharray:none;stroke-opacity:1"
         id="path154" /><g
         id="g156"
         transform="scale(10)"><text
           transform="matrix(0,1,1,0,106.1,570.679)"
           style="font-variant:normal;font-weight:normal;font-size:24px;font-family:Arial;-inkscape-font-specification:Arial;writing-mode:lr-tb;fill:#000000;fill-opacity:1;fill-rule:nonzero;stroke:none"
           id="text160"><tspan
             x="0 13.344 26.688"
             y="0"
             sodipodi:role="line"
             id="tspan158">100</tspan></text></g><path
         d="m 1221,6648 h 63"
         style="fill:none;stroke:#000000;stroke-width:5;stroke-linecap:butt;stroke-linejoin:miter;stroke-miterlimit:3.8;stroke-dasharray:none;stroke-opacity:1"
         id="path162" /><g
         id="g164"
         transform="scale(10)"><text
           transform="matrix(0,1,1,0,106.1,651.452)"
           style="font-variant:normal;font-weight:normal;font-size:24px;font-family:Arial;-inkscape-font-specification:Arial;writing-mode:lr-tb;fill:#000000;fill-opacity:1;fill-rule:nonzero;stroke:none"
           id="text168"><tspan
             x="0 13.344"
             y="0"
             sodipodi:role="line"
             id="tspan166">33</tspan></text></g><path
         d="M 1221,1244 H 4772 V 7267 H 1221 Z"
         style="fill:none;stroke:#000000;stroke-width:10;stroke-linecap:butt;stroke-linejoin:miter;stroke-miterlimit:3.8;stroke-dasharray:none;stroke-opacity:1"
         id="path170" /><path
         d="M 4771,5908 H 1220"
         style="fill:none;stroke:#0000ff;stroke-width:10;stroke-linecap:butt;stroke-linejoin:miter;stroke-miterlimit:3.8;stroke-dasharray:none;stroke-opacity:1"
         id="path172" /><g
         id="g174"
         transform="scale(10)"><text
           transform="matrix(-1,0,0,1,484.434,80.8)"
           style="font-variant:normal;font-weight:normal;font-size:24px;font-family:Arial;-inkscape-font-specification:Arial;writing-mode:lr-tb;fill:#000000;fill-opacity:1;fill-rule:nonzero;stroke:none"
           id="text178"><tspan
             x="0 17.327999 30.672001 42.672001 56.015999 69.360001 74.688004 88.031998 101.376 108.048 122.712 128.03999 148.032 161.37601 168.048 184.056 197.39999 205.392 212.064 228.07201 240.07201 253.416 266.76001 274.75201 288.09601 308.08801 321.43201 328.104 336.09601 349.44 361.44"
             y="0"
             sodipodi:role="line"
             id="tspan176">Decoding Time Per Syndrome (us)</tspan></text><text
           transform="matrix(0,1,1,0,545.2,346.123)"
           style="font-variant:normal;font-weight:normal;font-size:24px;font-family:Arial;-inkscape-font-specification:Arial;writing-mode:lr-tb;fill:#000000;fill-opacity:1;fill-rule:nonzero;stroke:none"
           id="text184"><tspan
             x="0 16.007999 29.351999 37.344002 44.015999 49.344002 56.015999 61.344002 74.688004 88.031998 94.704002 112.032 125.376 138.72 152.064"
             y="0"
             sodipodi:role="line"
             id="tspan180">Partition Count</tspan><tspan
             x="8.6777296 24.68573 38.029732 46.021729 52.693729 58.021729 64.693733 70.021729 83.36573 96.709732 103.38173 119.38973 124.71773 136.71773"
             y="-475.10001"
             sodipodi:role="line"
             id="tspan182">Partition Size</tspan></text></g><path
         d="m 2201,1244 125,468 101,274 74,194 51,150 24,123 49,105 17,90 37,79 -1,71 120,274 106,259 164,273 327,281 302,273 140,195 127,273 59,259 32,274 11,280 1,274 3,194 32,274 -21,258 -127,274 -191,280 -358,274"
         style="fill:none;stroke:#e31a1c;stroke-width:15;stroke-linecap:butt;stroke-linejoin:miter;stroke-miterlimit:3.8;stroke-dasharray:none;stroke-opacity:1"
         id="path186" /><path
         d="m 2201,1284.95 c -22.61,0 -40.95,-18.34 -40.95,-40.95 0,-22.61 18.34,-40.95 40.95,-40.95 22.61,0 40.95,18.34 40.95,40.95 0,22.61 -18.34,40.95 -40.95,40.95"
         style="fill:#e31a1c;fill-opacity:1;fill-rule:nonzero;stroke:none"
         id="path188" /><path
         d="m 2326,1752.95 c -22.61,0 -40.95,-18.34 -40.95,-40.95 0,-22.61 18.34,-40.95 40.95,-40.95 22.61,0 40.95,18.34 40.95,40.95 0,22.61 -18.34,40.95 -40.95,40.95"
         style="fill:#e31a1c;fill-opacity:1;fill-rule:nonzero;stroke:none"
         id="path190" /><path
         d="m 2427,2026.95 c -22.61,0 -40.95,-18.34 -40.95,-40.95 0,-22.61 18.34,-40.95 40.95,-40.95 22.61,0 40.95,18.34 40.95,40.95 0,22.61 -18.34,40.95 -40.95,40.95"
         style="fill:#e31a1c;fill-opacity:1;fill-rule:nonzero;stroke:none"
         id="path192" /><path
         d="m 2501,2220.95 c -22.61,0 -40.95,-18.34 -40.95,-40.95 0,-22.61 18.34,-40.95 40.95,-40.95 22.61,0 40.95,18.34 40.95,40.95 0,22.61 -18.34,40.95 -40.95,40.95"
         style="fill:#e31a1c;fill-opacity:1;fill-rule:nonzero;stroke:none"
         id="path194" /><path
         d="m 2552,2370.95 c -22.61,0 -40.95,-18.34 -40.95,-40.95 0,-22.61 18.34,-40.95 40.95,-40.95 22.61,0 40.95,18.34 40.95,40.95 0,22.61 -18.34,40.95 -40.95,40.95"
         style="fill:#e31a1c;fill-opacity:1;fill-rule:nonzero;stroke:none"
         id="path196" /><path
         d="m 2576,2493.95 c -22.61,0 -40.95,-18.34 -40.95,-40.95 0,-22.61 18.34,-40.95 40.95,-40.95 22.61,0 40.95,18.34 40.95,40.95 0,22.61 -18.34,40.95 -40.95,40.95"
         style="fill:#e31a1c;fill-opacity:1;fill-rule:nonzero;stroke:none"
         id="path198" /><path
         d="m 2625,2598.95 c -22.61,0 -40.95,-18.34 -40.95,-40.95 0,-22.61 18.34,-40.95 40.95,-40.95 22.61,0 40.95,18.34 40.95,40.95 0,22.61 -18.34,40.95 -40.95,40.95"
         style="fill:#e31a1c;fill-opacity:1;fill-rule:nonzero;stroke:none"
         id="path200" /><path
         d="m 2642,2688.95 c -22.61,0 -40.95,-18.34 -40.95,-40.95 0,-22.61 18.34,-40.95 40.95,-40.95 22.61,0 40.95,18.34 40.95,40.95 0,22.61 -18.34,40.95 -40.95,40.95"
         style="fill:#e31a1c;fill-opacity:1;fill-rule:nonzero;stroke:none"
         id="path202" /><path
         d="m 2679,2767.95 c -22.61,0 -40.95,-18.34 -40.95,-40.95 0,-22.61 18.34,-40.95 40.95,-40.95 22.61,0 40.95,18.34 40.95,40.95 0,22.61 -18.34,40.95 -40.95,40.95"
         style="fill:#e31a1c;fill-opacity:1;fill-rule:nonzero;stroke:none"
         id="path204" /><path
         d="m 2678,2838.95 c -22.61,0 -40.95,-18.34 -40.95,-40.95 0,-22.61 18.34,-40.95 40.95,-40.95 22.61,0 40.95,18.34 40.95,40.95 0,22.61 -18.34,40.95 -40.95,40.95"
         style="fill:#e31a1c;fill-opacity:1;fill-rule:nonzero;stroke:none"
         id="path206" /><path
         d="m 2678,2838.95 c -22.61,0 -40.95,-18.34 -40.95,-40.95 0,-22.61 18.34,-40.95 40.95,-40.95 22.61,0 40.95,18.34 40.95,40.95 0,22.61 -18.34,40.95 -40.95,40.95"
         style="fill:#e31a1c;fill-opacity:1;fill-rule:nonzero;stroke:none"
         id="path208" /><path
         d="m 2798,3112.95 c -22.61,0 -40.95,-18.34 -40.95,-40.95 0,-22.61 18.34,-40.95 40.95,-40.95 22.61,0 40.95,18.34 40.95,40.95 0,22.61 -18.34,40.95 -40.95,40.95"
         style="fill:#e31a1c;fill-opacity:1;fill-rule:nonzero;stroke:none"
         id="path210" /><path
         d="m 2904,3371.95 c -22.61,0 -40.95,-18.34 -40.95,-40.95 0,-22.61 18.34,-40.95 40.95,-40.95 22.61,0 40.95,18.34 40.95,40.95 0,22.61 -18.34,40.95 -40.95,40.95"
         style="fill:#e31a1c;fill-opacity:1;fill-rule:nonzero;stroke:none"
         id="path212" /><path
         d="m 3068,3644.95 c -22.61,0 -40.95,-18.34 -40.95,-40.95 0,-22.61 18.34,-40.95 40.95,-40.95 22.61,0 40.95,18.34 40.95,40.95 0,22.61 -18.34,40.95 -40.95,40.95"
         style="fill:#e31a1c;fill-opacity:1;fill-rule:nonzero;stroke:none"
         id="path214" /><path
         d="m 3395,3925.95 c -22.61,0 -40.95,-18.34 -40.95,-40.95 0,-22.61 18.34,-40.95 40.95,-40.95 22.61,0 40.95,18.34 40.95,40.95 0,22.61 -18.34,40.95 -40.95,40.95"
         style="fill:#e31a1c;fill-opacity:1;fill-rule:nonzero;stroke:none"
         id="path216" /><path
         d="m 3697,4198.95 c -22.61,0 -40.95,-18.34 -40.95,-40.95 0,-22.61 18.34,-40.95 40.95,-40.95 22.61,0 40.95,18.34 40.95,40.95 0,22.61 -18.34,40.95 -40.95,40.95"
         style="fill:#e31a1c;fill-opacity:1;fill-rule:nonzero;stroke:none"
         id="path218" /><path
         d="m 3837,4393.95 c -22.61,0 -40.95,-18.34 -40.95,-40.95 0,-22.61 18.34,-40.95 40.95,-40.95 22.61,0 40.95,18.34 40.95,40.95 0,22.61 -18.34,40.95 -40.95,40.95"
         style="fill:#e31a1c;fill-opacity:1;fill-rule:nonzero;stroke:none"
         id="path220" /><path
         d="m 3964,4666.95 c -22.61,0 -40.95,-18.34 -40.95,-40.95 0,-22.61 18.34,-40.95 40.95,-40.95 22.61,0 40.95,18.34 40.95,40.95 0,22.61 -18.34,40.95 -40.95,40.95"
         style="fill:#e31a1c;fill-opacity:1;fill-rule:nonzero;stroke:none"
         id="path222" /><path
         d="m 4023,4925.95 c -22.61,0 -40.95,-18.34 -40.95,-40.95 0,-22.61 18.34,-40.95 40.95,-40.95 22.61,0 40.95,18.34 40.95,40.95 0,22.61 -18.34,40.95 -40.95,40.95"
         style="fill:#e31a1c;fill-opacity:1;fill-rule:nonzero;stroke:none"
         id="path224" /><path
         d="m 4055,5199.95 c -22.61,0 -40.95,-18.34 -40.95,-40.95 0,-22.61 18.34,-40.95 40.95,-40.95 22.61,0 40.95,18.34 40.95,40.95 0,22.61 -18.34,40.95 -40.95,40.95"
         style="fill:#e31a1c;fill-opacity:1;fill-rule:nonzero;stroke:none"
         id="path226" /><path
         d="m 4066,5479.95 c -22.61,0 -40.95,-18.34 -40.95,-40.95 0,-22.61 18.34,-40.95 40.95,-40.95 22.61,0 40.95,18.34 40.95,40.95 0,22.61 -18.34,40.95 -40.95,40.95"
         style="fill:#e31a1c;fill-opacity:1;fill-rule:nonzero;stroke:none"
         id="path228" /><path
         d="m 4067,5753.95 c -22.61,0 -40.95,-18.34 -40.95,-40.95 0,-22.61 18.34,-40.95 40.95,-40.95 22.61,0 40.95,18.34 40.95,40.95 0,22.61 -18.34,40.95 -40.95,40.95"
         style="fill:#e31a1c;fill-opacity:1;fill-rule:nonzero;stroke:none"
         id="path230" /><path
         d="m 4070,5947.95 c -22.61,0 -40.95,-18.34 -40.95,-40.95 0,-22.61 18.34,-40.95 40.95,-40.95 22.61,0 40.95,18.34 40.95,40.95 0,22.61 -18.34,40.95 -40.95,40.95"
         style="fill:#e31a1c;fill-opacity:1;fill-rule:nonzero;stroke:none"
         id="path232" /><path
         d="m 4102,6221.95 c -22.61,0 -40.95,-18.34 -40.95,-40.95 0,-22.61 18.34,-40.95 40.95,-40.95 22.61,0 40.95,18.34 40.95,40.95 0,22.61 -18.34,40.95 -40.95,40.95"
         style="fill:#e31a1c;fill-opacity:1;fill-rule:nonzero;stroke:none"
         id="path234" /><path
         d="m 4081,6479.95 c -22.61,0 -40.95,-18.34 -40.95,-40.95 0,-22.61 18.34,-40.95 40.95,-40.95 22.61,0 40.95,18.34 40.95,40.95 0,22.61 -18.34,40.95 -40.95,40.95"
         style="fill:#e31a1c;fill-opacity:1;fill-rule:nonzero;stroke:none"
         id="path236" /><path
         d="m 3954,6753.95 c -22.61,0 -40.95,-18.34 -40.95,-40.95 0,-22.61 18.34,-40.95 40.95,-40.95 22.61,0 40.95,18.34 40.95,40.95 0,22.61 -18.34,40.95 -40.95,40.95"
         style="fill:#e31a1c;fill-opacity:1;fill-rule:nonzero;stroke:none"
         id="path238" /><path
         d="m 3763,7033.95 c -22.61,0 -40.95,-18.34 -40.95,-40.95 0,-22.61 18.34,-40.95 40.95,-40.95 22.61,0 40.95,18.34 40.95,40.95 0,22.61 -18.34,40.95 -40.95,40.95"
         style="fill:#e31a1c;fill-opacity:1;fill-rule:nonzero;stroke:none"
         id="path240" /><path
         d="m 3405,7307.95 c -22.61,0 -40.95,-18.34 -40.95,-40.95 0,-22.61 18.34,-40.95 40.95,-40.95 22.61,0 40.95,18.34 40.95,40.95 0,22.61 -18.34,40.95 -40.95,40.95"
         style="fill:#e31a1c;fill-opacity:1;fill-rule:nonzero;stroke:none"
         id="path242" /><path
         d="M 1221,1244 H 4772 V 7267 H 1221 Z"
         style="fill:none;stroke:#000000;stroke-width:10;stroke-linecap:butt;stroke-linejoin:miter;stroke-miterlimit:3.8;stroke-dasharray:none;stroke-opacity:1"
         id="path244" /></g></g></svg>
