<?xml version="1.0" encoding="UTF-8" standalone="no"?>
<!-- Created with Inkscape (http://www.inkscape.org/) -->

<svg
   version="1.1"
   id="svg2"
   xml:space="preserve"
   width="1122.6667"
   height="793.33331"
   viewBox="0 0 1122.6667 793.33331"
   sodipodi:docname="decoding_time_per_syndrome.eps"
   xmlns:inkscape="http://www.inkscape.org/namespaces/inkscape"
   xmlns:sodipodi="http://sodipodi.sourceforge.net/DTD/sodipodi-0.dtd"
   xmlns="http://www.w3.org/2000/svg"
   xmlns:svg="http://www.w3.org/2000/svg"><defs
     id="defs6" /><sodipodi:namedview
     id="namedview4"
     pagecolor="#ffffff"
     bordercolor="#666666"
     borderopacity="1.0"
     inkscape:pageshadow="2"
     inkscape:pageopacity="0.0"
     inkscape:pagecheckerboard="0" /><g
     id="g8"
     inkscape:groupmode="layer"
     inkscape:label="ink_ext_XXXXXX"
     transform="matrix(0,1.3333333,1.3333333,0,0,0)"><g
       id="g10"
       transform="scale(0.1)"><path
         d="M 4772,1676 V 7267"
         style="fill:none;stroke:#000000;stroke-width:1.25;stroke-linecap:butt;stroke-linejoin:miter;stroke-miterlimit:3.8;stroke-dasharray:10, 20;stroke-dashoffset:0;stroke-opacity:1"
         id="path12" /><path
         d="m 4772,1676 v 63 m 0,5528 v -63"
         style="fill:none;stroke:#000000;stroke-width:5;stroke-linecap:butt;stroke-linejoin:miter;stroke-miterlimit:3.8;stroke-dasharray:none;stroke-opacity:1"
         id="path14" /><g
         id="g16"
         transform="scale(10)"><text
           transform="matrix(0,1,1,0,485.2,106.489)"
           style="font-variant:normal;font-weight:normal;font-size:24px;font-family:Arial;-inkscape-font-specification:Arial;writing-mode:lr-tb;fill:#000000;fill-opacity:1;fill-rule:nonzero;stroke:none"
           id="text20"><tspan
             x="0 13.344 20.016001 33.360001"
             y="0"
             sodipodi:role="line"
             id="tspan18">0.05</tspan></text></g><path
         d="M 4165,1676 V 7267"
         style="fill:none;stroke:#000000;stroke-width:1.25;stroke-linecap:butt;stroke-linejoin:miter;stroke-miterlimit:3.8;stroke-dasharray:10, 20;stroke-dashoffset:0;stroke-opacity:1"
         id="path22" /><path
         d="m 4165,1676 v 63 m 0,5528 v -63"
         style="fill:none;stroke:#000000;stroke-width:5;stroke-linecap:butt;stroke-linejoin:miter;stroke-miterlimit:3.8;stroke-dasharray:none;stroke-opacity:1"
         id="path24" /><g
         id="g26"
         transform="scale(10)"><text
           transform="matrix(0,1,1,0,424.5,119.837)"
           style="font-variant:normal;font-weight:normal;font-size:24px;font-family:Arial;-inkscape-font-specification:Arial;writing-mode:lr-tb;fill:#000000;fill-opacity:1;fill-rule:nonzero;stroke:none"
           id="text30"><tspan
             x="0 13.344 20.016001"
             y="0"
             sodipodi:role="line"
             id="tspan28">0.1</tspan></text></g><path
         d="M 3204,1676 V 7267"
         style="fill:none;stroke:#000000;stroke-width:1.25;stroke-linecap:butt;stroke-linejoin:miter;stroke-miterlimit:3.8;stroke-dasharray:10, 20;stroke-dashoffset:0;stroke-opacity:1"
         id="path32" /><path
         d="m 3204,1676 v 63 m 0,5528 v -63"
         style="fill:none;stroke:#000000;stroke-width:5;stroke-linecap:butt;stroke-linejoin:miter;stroke-miterlimit:3.8;stroke-dasharray:none;stroke-opacity:1"
         id="path34" /><g
         id="g36"
         transform="scale(10)"><text
           transform="matrix(0,1,1,0,328.4,119.837)"
           style="font-variant:normal;font-weight:normal;font-size:24px;font-family:Arial;-inkscape-font-specification:Arial;writing-mode:lr-tb;fill:#000000;fill-opacity:1;fill-rule:nonzero;stroke:none"
           id="text40"><tspan
             x="0 13.344 20.016001"
             y="0"
             sodipodi:role="line"
             id="tspan38">0.3</tspan></text></g><path
         d="M 2150,1676 V 7267"
         style="fill:none;stroke:#000000;stroke-width:1.25;stroke-linecap:butt;stroke-linejoin:miter;stroke-miterlimit:3.8;stroke-dasharray:10, 20;stroke-dashoffset:0;stroke-opacity:1"
         id="path42" /><path
         d="m 2150,1676 v 63 m 0,5528 v -63"
         style="fill:none;stroke:#000000;stroke-width:5;stroke-linecap:butt;stroke-linejoin:miter;stroke-miterlimit:3.8;stroke-dasharray:none;stroke-opacity:1"
         id="path44" /><g
         id="g46"
         transform="scale(10)"><text
           transform="matrix(0,1,1,0,223,139.852)"
           style="font-variant:normal;font-weight:normal;font-size:24px;font-family:Arial;-inkscape-font-specification:Arial;writing-mode:lr-tb;fill:#000000;fill-opacity:1;fill-rule:nonzero;stroke:none"
           id="text50"><tspan
             x="0"
             y="0"
             id="tspan48">1</tspan></text></g><path
         d="M 1188,1676 V 7267"
         style="fill:none;stroke:#000000;stroke-width:1.25;stroke-linecap:butt;stroke-linejoin:miter;stroke-miterlimit:3.8;stroke-dasharray:10, 20;stroke-dashoffset:0;stroke-opacity:1"
         id="path52" /><path
         d="m 1188,1676 v 63 m 0,5528 v -63"
         style="fill:none;stroke:#000000;stroke-width:5;stroke-linecap:butt;stroke-linejoin:miter;stroke-miterlimit:3.8;stroke-dasharray:none;stroke-opacity:1"
         id="path54" /><g
         id="g56"
         transform="scale(10)"><text
           transform="matrix(0,1,1,0,126.8,139.852)"
           style="font-variant:normal;font-weight:normal;font-size:24px;font-family:Arial;-inkscape-font-specification:Arial;writing-mode:lr-tb;fill:#000000;fill-opacity:1;fill-rule:nonzero;stroke:none"
           id="text60"><tspan
             x="0"
             y="0"
             id="tspan58">3</tspan></text></g><path
         d="m 4772,1676 h -63 m -3968,0 h 63"
         style="fill:none;stroke:#000000;stroke-width:5;stroke-linecap:butt;stroke-linejoin:miter;stroke-miterlimit:3.8;stroke-dasharray:none;stroke-opacity:1"
         id="path62" /><g
         id="g64"
         transform="scale(10)"><text
           transform="matrix(0,1,1,0,509.2,160.926)"
           style="font-variant:normal;font-weight:normal;font-size:24px;font-family:Arial;-inkscape-font-specification:Arial;writing-mode:lr-tb;fill:#000000;fill-opacity:1;fill-rule:nonzero;stroke:none"
           id="text68"><tspan
             x="0"
             y="0"
             id="tspan66">1</tspan></text></g><path
         d="m 4772,2375 h -63 m -3968,0 h 63"
         style="fill:none;stroke:#000000;stroke-width:5;stroke-linecap:butt;stroke-linejoin:miter;stroke-miterlimit:3.8;stroke-dasharray:none;stroke-opacity:1"
         id="path70" /><g
         id="g72"
         transform="scale(10)"><text
           transform="matrix(0,1,1,0,509.2,230.826)"
           style="font-variant:normal;font-weight:normal;font-size:24px;font-family:Arial;-inkscape-font-specification:Arial;writing-mode:lr-tb;fill:#000000;fill-opacity:1;fill-rule:nonzero;stroke:none"
           id="text76"><tspan
             x="0"
             y="0"
             id="tspan74">2</tspan></text></g><path
         d="m 4772,3074 h -63 m -3968,0 h 63"
         style="fill:none;stroke:#000000;stroke-width:5;stroke-linecap:butt;stroke-linejoin:miter;stroke-miterlimit:3.8;stroke-dasharray:none;stroke-opacity:1"
         id="path78" /><g
         id="g80"
         transform="scale(10)"><text
           transform="matrix(0,1,1,0,509.2,300.726)"
           style="font-variant:normal;font-weight:normal;font-size:24px;font-family:Arial;-inkscape-font-specification:Arial;writing-mode:lr-tb;fill:#000000;fill-opacity:1;fill-rule:nonzero;stroke:none"
           id="text84"><tspan
             x="0"
             y="0"
             id="tspan82">4</tspan></text></g><path
         d="m 4772,3773 h -63 m -3968,0 h 63"
         style="fill:none;stroke:#000000;stroke-width:5;stroke-linecap:butt;stroke-linejoin:miter;stroke-miterlimit:3.8;stroke-dasharray:none;stroke-opacity:1"
         id="path86" /><g
         id="g88"
         transform="scale(10)"><text
           transform="matrix(0,1,1,0,509.2,370.626)"
           style="font-variant:normal;font-weight:normal;font-size:24px;font-family:Arial;-inkscape-font-specification:Arial;writing-mode:lr-tb;fill:#000000;fill-opacity:1;fill-rule:nonzero;stroke:none"
           id="text92"><tspan
             x="0"
             y="0"
             id="tspan90">8</tspan></text></g><path
         d="m 4772,4471 h -63 m -3968,0 h 63"
         style="fill:none;stroke:#000000;stroke-width:5;stroke-linecap:butt;stroke-linejoin:miter;stroke-miterlimit:3.8;stroke-dasharray:none;stroke-opacity:1"
         id="path94" /><g
         id="g96"
         transform="scale(10)"><text
           transform="matrix(0,1,1,0,509.2,433.752)"
           style="font-variant:normal;font-weight:normal;font-size:24px;font-family:Arial;-inkscape-font-specification:Arial;writing-mode:lr-tb;fill:#000000;fill-opacity:1;fill-rule:nonzero;stroke:none"
           id="text100"><tspan
             x="0 13.344"
             y="0"
             sodipodi:role="line"
             id="tspan98">16</tspan></text></g><path
         d="m 4772,5170 h -63 m -3968,0 h 63"
         style="fill:none;stroke:#000000;stroke-width:5;stroke-linecap:butt;stroke-linejoin:miter;stroke-miterlimit:3.8;stroke-dasharray:none;stroke-opacity:1"
         id="path102" /><g
         id="g104"
         transform="scale(10)"><text
           transform="matrix(0,1,1,0,509.2,503.652)"
           style="font-variant:normal;font-weight:normal;font-size:24px;font-family:Arial;-inkscape-font-specification:Arial;writing-mode:lr-tb;fill:#000000;fill-opacity:1;fill-rule:nonzero;stroke:none"
           id="text108"><tspan
             x="0 13.344"
             y="0"
             sodipodi:role="line"
             id="tspan106">32</tspan></text></g><path
         d="m 4772,5869 h -63 m -3968,0 h 63"
         style="fill:none;stroke:#000000;stroke-width:5;stroke-linecap:butt;stroke-linejoin:miter;stroke-miterlimit:3.8;stroke-dasharray:none;stroke-opacity:1"
         id="path110" /><g
         id="g112"
         transform="scale(10)"><text
           transform="matrix(0,1,1,0,509.2,573.552)"
           style="font-variant:normal;font-weight:normal;font-size:24px;font-family:Arial;-inkscape-font-specification:Arial;writing-mode:lr-tb;fill:#000000;fill-opacity:1;fill-rule:nonzero;stroke:none"
           id="text116"><tspan
             x="0 13.344"
             y="0"
             sodipodi:role="line"
             id="tspan114">64</tspan></text></g><path
         d="m 4772,6568 h -63 m -3968,0 h 63"
         style="fill:none;stroke:#000000;stroke-width:5;stroke-linecap:butt;stroke-linejoin:miter;stroke-miterlimit:3.8;stroke-dasharray:none;stroke-opacity:1"
         id="path118" /><g
         id="g120"
         transform="scale(10)"><text
           transform="matrix(0,1,1,0,509.2,636.779)"
           style="font-variant:normal;font-weight:normal;font-size:24px;font-family:Arial;-inkscape-font-specification:Arial;writing-mode:lr-tb;fill:#000000;fill-opacity:1;fill-rule:nonzero;stroke:none"
           id="text124"><tspan
             x="0 13.344 26.688"
             y="0"
             sodipodi:role="line"
             id="tspan122">128</tspan></text></g><path
         d="m 4772,7267 h -63 m -3968,0 h 63"
         style="fill:none;stroke:#000000;stroke-width:5;stroke-linecap:butt;stroke-linejoin:miter;stroke-miterlimit:3.8;stroke-dasharray:none;stroke-opacity:1"
         id="path126" /><g
         id="g128"
         transform="scale(10)"><text
           transform="matrix(0,1,1,0,509.2,706.679)"
           style="font-variant:normal;font-weight:normal;font-size:24px;font-family:Arial;-inkscape-font-specification:Arial;writing-mode:lr-tb;fill:#000000;fill-opacity:1;fill-rule:nonzero;stroke:none"
           id="text132"><tspan
             x="0 13.344 26.688"
             y="0"
             sodipodi:role="line"
             id="tspan130">256</tspan></text></g><path
         d="M 741,1676 H 4772 V 7267 H 741 Z"
         style="fill:none;stroke:#000000;stroke-width:10;stroke-linecap:butt;stroke-linejoin:miter;stroke-miterlimit:3.8;stroke-dasharray:none;stroke-opacity:1"
         id="path134" /><path
         d="M 4771,5870 H 740"
         style="fill:none;stroke:#0000ff;stroke-width:10;stroke-linecap:butt;stroke-linejoin:miter;stroke-miterlimit:3.8;stroke-dasharray:none;stroke-opacity:1"
         id="path136" /><g
         id="g138"
         transform="scale(10)"><text
           transform="matrix(-1,0,0,1,456.438,80.8)"
           style="font-variant:normal;font-weight:normal;font-size:24px;font-family:Arial;-inkscape-font-specification:Arial;writing-mode:lr-tb;fill:#000000;fill-opacity:1;fill-rule:nonzero;stroke:none"
           id="text142"><tspan
             x="0 17.327999 30.672001 42.672001 56.015999 69.360001 74.688004 88.031998 101.376 108.048 114.72 120.048 140.03999 153.384 160.056 176.064 189.408 197.39999 204.07201 220.08 232.08 245.424 258.76801 266.76001 280.104 300.09601 313.44 320.112 328.104 341.448 353.448"
             y="0"
             sodipodi:role="line"
             id="tspan140">Decoding time Per Syndrome (us)</tspan></text><text
           transform="matrix(0,1,1,0,545.2,403.079)"
           style="font-variant:normal;font-weight:normal;font-size:24px;font-family:Arial;-inkscape-font-specification:Arial;writing-mode:lr-tb;fill:#000000;fill-opacity:1;fill-rule:nonzero;stroke:none"
           id="text146"><tspan
             x="0 14.664 28.007999 36 49.344002 62.688 76.031998"
             y="0"
             sodipodi:role="line"
             id="tspan144">Threads</tspan></text></g><path
         d="m 1072,1676 49,56 49,57 49,56 49,57 49,56 49,57 49,56 49,57 49,56 49,57 49,56 49,57 49,56 49,57 49,56 49,57 49,56 49,57 49,56 49,56 50,57 49,56 49,57 49,56 49,57 49,56 49,57 49,56 49,57 49,56 49,57 49,56 49,57 49,56 49,57 49,56 49,57 49,56 49,57 49,56 49,56 49,57 49,56 49,57 49,56 49,57 49,56 49,57 49,56 49,57 49,56 49,57 49,56 49,57 49,56 50,57 49,56 49,57 49,56 49,56 49,57 49,56 49,57 49,56 49,57 49,56 49,57 49,56 49,57 49,56 49,57 49,56 49,57 49,56 49,57 23,26"
         style="fill:none;stroke:#e31a1c;stroke-width:15;stroke-linecap:butt;stroke-linejoin:miter;stroke-miterlimit:3.8;stroke-dasharray:60, 90;stroke-dashoffset:0;stroke-opacity:1"
         id="path148" /><path
         d="m 1072,1676 654,699 331,409 229,290 33,409 505,290 91,408 239,290 318,409 445,290 242,409 151,290 65,409 -14,290 -450,409 113,290"
         style="fill:none;stroke:#e31a1c;stroke-width:15;stroke-linecap:butt;stroke-linejoin:miter;stroke-miterlimit:3.8;stroke-dasharray:none;stroke-opacity:1"
         id="path150" /><path
         d="m 1072,1716.95 c -22.61,0 -40.95,-18.34 -40.95,-40.95 0,-22.61 18.34,-40.95 40.95,-40.95 22.61,0 40.95,18.34 40.95,40.95 0,22.61 -18.34,40.95 -40.95,40.95"
         style="fill:#e31a1c;fill-opacity:1;fill-rule:nonzero;stroke:none"
         id="path152" /><path
         d="m 1726,2415.95 c -22.61,0 -40.95,-18.34 -40.95,-40.95 0,-22.61 18.34,-40.95 40.95,-40.95 22.61,0 40.95,18.34 40.95,40.95 0,22.61 -18.34,40.95 -40.95,40.95"
         style="fill:#e31a1c;fill-opacity:1;fill-rule:nonzero;stroke:none"
         id="path154" /><path
         d="m 2057,2824.95 c -22.61,0 -40.95,-18.34 -40.95,-40.95 0,-22.61 18.34,-40.95 40.95,-40.95 22.61,0 40.95,18.34 40.95,40.95 0,22.61 -18.34,40.95 -40.95,40.95"
         style="fill:#e31a1c;fill-opacity:1;fill-rule:nonzero;stroke:none"
         id="path156" /><path
         d="m 2286,3114.95 c -22.61,0 -40.95,-18.34 -40.95,-40.95 0,-22.61 18.34,-40.95 40.95,-40.95 22.61,0 40.95,18.34 40.95,40.95 0,22.61 -18.34,40.95 -40.95,40.95"
         style="fill:#e31a1c;fill-opacity:1;fill-rule:nonzero;stroke:none"
         id="path158" /><path
         d="m 2319,3523.95 c -22.61,0 -40.95,-18.34 -40.95,-40.95 0,-22.61 18.34,-40.95 40.95,-40.95 22.61,0 40.95,18.34 40.95,40.95 0,22.61 -18.34,40.95 -40.95,40.95"
         style="fill:#e31a1c;fill-opacity:1;fill-rule:nonzero;stroke:none"
         id="path160" /><path
         d="m 2824,3813.95 c -22.61,0 -40.95,-18.34 -40.95,-40.95 0,-22.61 18.34,-40.95 40.95,-40.95 22.61,0 40.95,18.34 40.95,40.95 0,22.61 -18.34,40.95 -40.95,40.95"
         style="fill:#e31a1c;fill-opacity:1;fill-rule:nonzero;stroke:none"
         id="path162" /><path
         d="m 2915,4221.95 c -22.61,0 -40.95,-18.34 -40.95,-40.95 0,-22.61 18.34,-40.95 40.95,-40.95 22.61,0 40.95,18.34 40.95,40.95 0,22.61 -18.34,40.95 -40.95,40.95"
         style="fill:#e31a1c;fill-opacity:1;fill-rule:nonzero;stroke:none"
         id="path164" /><path
         d="m 3154,4511.95 c -22.61,0 -40.95,-18.34 -40.95,-40.95 0,-22.61 18.34,-40.95 40.95,-40.95 22.61,0 40.95,18.34 40.95,40.95 0,22.61 -18.34,40.95 -40.95,40.95"
         style="fill:#e31a1c;fill-opacity:1;fill-rule:nonzero;stroke:none"
         id="path166" /><path
         d="m 3472,4920.95 c -22.61,0 -40.95,-18.34 -40.95,-40.95 0,-22.61 18.34,-40.95 40.95,-40.95 22.61,0 40.95,18.34 40.95,40.95 0,22.61 -18.34,40.95 -40.95,40.95"
         style="fill:#e31a1c;fill-opacity:1;fill-rule:nonzero;stroke:none"
         id="path168" /><path
         d="m 3917,5210.95 c -22.61,0 -40.95,-18.34 -40.95,-40.95 0,-22.61 18.34,-40.95 40.95,-40.95 22.61,0 40.95,18.34 40.95,40.95 0,22.61 -18.34,40.95 -40.95,40.95"
         style="fill:#e31a1c;fill-opacity:1;fill-rule:nonzero;stroke:none"
         id="path170" /><path
         d="m 4159,5619.95 c -22.61,0 -40.95,-18.34 -40.95,-40.95 0,-22.61 18.34,-40.95 40.95,-40.95 22.61,0 40.95,18.34 40.95,40.95 0,22.61 -18.34,40.95 -40.95,40.95"
         style="fill:#e31a1c;fill-opacity:1;fill-rule:nonzero;stroke:none"
         id="path172" /><path
         d="m 4310,5909.95 c -22.61,0 -40.95,-18.34 -40.95,-40.95 0,-22.61 18.34,-40.95 40.95,-40.95 22.61,0 40.95,18.34 40.95,40.95 0,22.61 -18.34,40.95 -40.95,40.95"
         style="fill:#e31a1c;fill-opacity:1;fill-rule:nonzero;stroke:none"
         id="path174" /><path
         d="m 4375,6318.95 c -22.61,0 -40.95,-18.34 -40.95,-40.95 0,-22.61 18.34,-40.95 40.95,-40.95 22.61,0 40.95,18.34 40.95,40.95 0,22.61 -18.34,40.95 -40.95,40.95"
         style="fill:#e31a1c;fill-opacity:1;fill-rule:nonzero;stroke:none"
         id="path176" /><path
         d="m 4361,6608.95 c -22.61,0 -40.95,-18.34 -40.95,-40.95 0,-22.61 18.34,-40.95 40.95,-40.95 22.61,0 40.95,18.34 40.95,40.95 0,22.61 -18.34,40.95 -40.95,40.95"
         style="fill:#e31a1c;fill-opacity:1;fill-rule:nonzero;stroke:none"
         id="path178" /><path
         d="m 3911,7017.95 c -22.61,0 -40.95,-18.34 -40.95,-40.95 0,-22.61 18.34,-40.95 40.95,-40.95 22.61,0 40.95,18.34 40.95,40.95 0,22.61 -18.34,40.95 -40.95,40.95"
         style="fill:#e31a1c;fill-opacity:1;fill-rule:nonzero;stroke:none"
         id="path180" /><path
         d="m 4024,7307.95 c -22.61,0 -40.95,-18.34 -40.95,-40.95 0,-22.61 18.34,-40.95 40.95,-40.95 22.61,0 40.95,18.34 40.95,40.95 0,22.61 -18.34,40.95 -40.95,40.95"
         style="fill:#e31a1c;fill-opacity:1;fill-rule:nonzero;stroke:none"
         id="path182" /><path
         d="M 741,1676 H 4772 V 7267 H 741 Z"
         style="fill:none;stroke:#000000;stroke-width:10;stroke-linecap:butt;stroke-linejoin:miter;stroke-miterlimit:3.8;stroke-dasharray:none;stroke-opacity:1"
         id="path184" /></g></g></svg>
